{"glyphs":{"0":{"ha":537,"x_min":0,"x_max":434,"o":"m 87 0 l 87 87 l 347 87 l 347 0 l 87 0 m 174 347 l 174 434 l 260 434 l 260 347 l 174 347 m 0 87 l 0 694 l 87 694 l 87 347 l 174 347 l 174 174 l 87 174 l 87 87 l 0 87 m 347 87 l 347 434 l 260 434 l 260 608 l 347 608 l 347 694 l 434 694 l 434 87 l 347 87 m 87 694 l 87 781 l 347 781 l 347 694 l 87 694 z "},"1":{"ha":277,"x_min":0,"x_max":174,"o":"m 87 0 l 87 694 l 0 694 l 0 781 l 174 781 l 174 0 l 87 0 z "},"2":{"ha":537,"x_min":0,"x_max":434,"o":"m 0 0 l 0 347 l 87 347 l 87 87 l 434 87 l 434 0 l 0 0 m 87 347 l 87 434 l 347 434 l 347 347 l 87 347 m 347 434 l 347 694 l 434 694 l 434 434 l 347 434 m 0 694 l 0 781 l 347 781 l 347 694 l 0 694 z "},"3":{"ha":537,"x_min":0,"x_max":434,"o":"m 0 0 l 0 87 l 347 87 l 347 0 l 0 0 m 347 87 l 347 347 l 434 347 l 434 87 l 347 87 m 87 347 l 87 434 l 347 434 l 347 347 l 87 347 m 347 434 l 347 694 l 434 694 l 434 434 l 347 434 m 0 694 l 0 781 l 347 781 l 347 694 l 0 694 z "},"4":{"ha":624,"x_min":0,"x_max":521,"o":"m 0 347 l 0 781 l 87 781 l 87 347 l 0 347 m 347 0 l 347 260 l 87 260 l 87 347 l 347 347 l 347 781 l 434 781 l 434 347 l 521 347 l 521 260 l 434 260 l 434 0 l 347 0 z "},"5":{"ha":537,"x_min":0,"x_max":434,"o":"m 0 0 l 0 87 l 347 87 l 347 0 l 0 0 m 347 87 l 347 347 l 434 347 l 434 87 l 347 87 m 0 347 l 0 781 l 434 781 l 434 694 l 87 694 l 87 434 l 347 434 l 347 347 l 0 347 z "},"6":{"ha":537,"x_min":0,"x_max":434,"o":"m 87 0 l 87 87 l 347 87 l 347 0 l 87 0 m 347 87 l 347 347 l 434 347 l 434 87 l 347 87 m 0 87 l 0 694 l 87 694 l 87 434 l 347 434 l 347 347 l 87 347 l 87 87 l 0 87 m 87 694 l 87 781 l 347 781 l 347 694 l 87 694 z "},"7":{"ha":537,"x_min":0,"x_max":434,"o":"m 174 0 l 174 434 l 260 434 l 260 0 l 174 0 m 260 434 l 260 521 l 347 521 l 347 434 l 260 434 m 347 521 l 347 694 l 0 694 l 0 781 l 434 781 l 434 521 l 347 521 z "},"8":{"ha":537,"x_min":0,"x_max":434,"o":"m 87 0 l 87 87 l 347 87 l 347 0 l 87 0 m 0 87 l 0 347 l 87 347 l 87 87 l 0 87 m 347 87 l 347 347 l 434 347 l 434 87 l 347 87 m 87 347 l 87 434 l 347 434 l 347 347 l 87 347 m 0 434 l 0 694 l 87 694 l 87 434 l 0 434 m 347 434 l 347 694 l 434 694 l 434 434 l 347 434 m 87 694 l 87 781 l 347 781 l 347 694 l 87 694 z "},"9":{"ha":537,"x_min":0,"x_max":434,"o":"m 87 0 l 87 87 l 347 87 l 347 0 l 87 0 m 0 434 l 0 694 l 87 694 l 87 434 l 0 434 m 347 87 l 347 347 l 87 347 l 87 434 l 347 434 l 347 694 l 434 694 l 434 87 l 347 87 m 87 694 l 87 781 l 347 781 l 347 694 l 87 694 z "}," ":{"ha":190,"x_min":0,"x_max":0,"o":""},"!":{"ha":190,"x_min":0,"x_max":87,"o":"m 0 0 l 0 174 l 87 174 l 87 0 l 0 0 m 0 260 l 0 781 l 87 781 l 87 260 l 0 260 z "},"\"":{"ha":363,"x_min":0,"x_max":260,"o":"m 0 608 l 0 781 l 87 781 l 87 608 l 0 608 m 174 608 l 174 781 l 260 781 l 260 608 l 174 608 z "},"#":{"ha":711,"x_min":0,"x_max":608,"o":"m 347 260 l 347 521 l 260 521 l 260 260 l 347 260 m 87 0 l 87 174 l 0 174 l 0 260 l 174 260 l 174 521 l 87 521 l 87 608 l 260 608 l 260 781 l 347 781 l 347 608 l 434 608 l 434 781 l 521 781 l 521 608 l 608 608 l 608 521 l 434 521 l 434 260 l 521 260 l 521 174 l 347 174 l 347 0 l 260 0 l 260 174 l 174 174 l 174 0 l 87 0 z "},"$":{"ha":537,"x_min":0,"x_max":434,"o":"m 0 174 l 0 260 l 87 260 l 87 174 l 0 174 m 347 174 l 347 347 l 434 347 l 434 174 l 347 174 m 0 434 l 0 608 l 87 608 l 87 434 l 0 434 m 347 521 l 347 608 l 434 608 l 434 521 l 347 521 m 174 0 l 174 87 l 87 87 l 87 174 l 174 174 l 174 347 l 87 347 l 87 434 l 174 434 l 174 608 l 87 608 l 87 694 l 174 694 l 174 781 l 260 781 l 260 694 l 347 694 l 347 608 l 260 608 l 260 434 l 347 434 l 347 347 l 260 347 l 260 174 l 347 174 l 347 87 l 260 87 l 260 0 l 174 0 z "},"%":{"ha":711,"x_min":0,"x_max":608,"o":"m 434 0 l 434 87 l 521 87 l 521 0 l 434 0 m 87 0 l 87 174 l 174 174 l 174 0 l 87 0 m 347 87 l 347 260 l 434 260 l 434 87 l 347 87 m 521 87 l 521 260 l 608 260 l 608 87 l 521 87 m 174 174 l 174 347 l 260 347 l 260 174 l 174 174 m 434 260 l 434 347 l 521 347 l 521 260 l 434 260 m 260 347 l 260 434 l 347 434 l 347 347 l 260 347 m 87 434 l 87 521 l 174 521 l 174 434 l 87 434 m 347 434 l 347 608 l 434 608 l 434 434 l 347 434 m 0 521 l 0 694 l 87 694 l 87 521 l 0 521 m 174 521 l 174 694 l 260 694 l 260 521 l 174 521 m 87 694 l 87 781 l 174 781 l 174 694 l 87 694 m 434 608 l 434 781 l 521 781 l 521 608 l 434 608 z "},"&":{"ha":624,"x_min":0,"x_max":521,"o":"m 87 0 l 87 87 l 347 87 l 347 0 l 87 0 m 434 0 l 434 87 l 521 87 l 521 0 l 434 0 m 0 87 l 0 260 l 87 260 l 87 87 l 0 87 m 347 87 l 347 260 l 434 260 l 434 87 l 347 87 m 87 260 l 87 347 l 174 347 l 174 260 l 87 260 m 260 260 l 260 347 l 347 347 l 347 260 l 260 260 m 434 260 l 434 347 l 521 347 l 521 260 l 434 260 m 174 347 l 174 434 l 260 434 l 260 347 l 174 347 m 87 434 l 87 694 l 174 694 l 174 434 l 87 434 m 260 434 l 260 694 l 347 694 l 347 434 l 260 434 m 174 694 l 174 781 l 260 781 l 260 694 l 174 694 z "},"'":{"ha":190,"x_min":0,"x_max":87,"o":"m 0 608 l 0 781 l 87 781 l 87 608 l 0 608 z "},"(":{"ha":363,"x_min":0,"x_max":260,"o":"m 174 0 l 174 87 l 260 87 l 260 0 l 174 0 m 87 87 l 87 260 l 174 260 l 174 87 l 87 87 m 0 260 l 0 521 l 87 521 l 87 260 l 0 260 m 87 521 l 87 694 l 174 694 l 174 521 l 87 521 m 174 694 l 174 781 l 260 781 l 260 694 l 174 694 z "},")":{"ha":363,"x_min":0,"x_max":260,"o":"m 0 0 l 0 87 l 87 87 l 87 0 l 0 0 m 87 87 l 87 260 l 174 260 l 174 87 l 87 87 m 174 260 l 174 521 l 260 521 l 260 260 l 174 260 m 87 521 l 87 694 l 174 694 l 174 521 l 87 521 m 0 694 l 0 781 l 87 781 l 87 694 l 0 694 z "},"*":{"ha":711,"x_min":0,"x_max":608,"o":"m 0 87 l 0 174 l 87 174 l 87 87 l 0 87 m 521 87 l 521 174 l 608 174 l 608 87 l 521 87 m 87 174 l 87 260 l 174 260 l 174 174 l 87 174 m 434 174 l 434 260 l 521 260 l 521 174 l 434 174 m 87 347 l 87 434 l 174 434 l 174 347 l 87 347 m 434 347 l 434 434 l 521 434 l 521 347 l 434 347 m 0 434 l 0 521 l 87 521 l 87 434 l 0 434 m 521 434 l 521 521 l 608 521 l 608 434 l 521 434 m 260 0 l 260 260 l 174 260 l 174 347 l 260 347 l 260 608 l 347 608 l 347 347 l 434 347 l 434 260 l 347 260 l 347 0 l 260 0 z "},"+":{"ha":537,"x_min":0,"x_max":434,"o":"m 174 87 l 174 260 l 0 260 l 0 347 l 174 347 l 174 521 l 260 521 l 260 347 l 434 347 l 434 260 l 260 260 l 260 87 l 174 87 z "},",":{"ha":277,"x_min":0,"x_max":174,"o":"m 0 -87 l 0 0 l 87 0 l 87 -87 l 0 -87 m 87 0 l 87 87 l 174 87 l 174 0 l 87 0 z "},"-":{"ha":537,"x_min":0,"x_max":434,"o":"m 0 260 l 0 347 l 434 347 l 434 260 l 0 260 z "},".":{"ha":190,"x_min":0,"x_max":87,"o":"m 0 0 l 0 87 l 87 87 l 87 0 l 0 0 z "},"/":{"ha":363,"x_min":0,"x_max":260,"o":"m 0 0 l 0 260 l 87 260 l 87 0 l 0 0 m 87 260 l 87 521 l 174 521 l 174 260 l 87 260 m 174 521 l 174 781 l 260 781 l 260 521 l 174 521 z "},":":{"ha":190,"x_min":0,"x_max":87,"o":"m 0 174 l 0 260 l 87 260 l 87 174 l 0 174 m 0 521 l 0 608 l 87 608 l 87 521 l 0 521 z "},";":{"ha":277,"x_min":0,"x_max":174,"o":"m 0 87 l 0 174 l 87 174 l 87 87 l 0 87 m 87 174 l 87 260 l 174 260 l 174 174 l 87 174 m 87 521 l 87 608 l 174 608 l 174 521 l 87 521 z "},"<":{"ha":363,"x_min":0,"x_max":260,"o":"m 174 174 l 174 260 l 260 260 l 260 174 l 174 174 m 87 260 l 87 347 l 174 347 l 174 260 l 87 260 m 0 347 l 0 434 l 87 434 l 87 347 l 0 347 m 87 434 l 87 521 l 174 521 l 174 434 l 87 434 m 174 521 l 174 608 l 260 608 l 260 521 l 174 521 z "},"=":{"ha":537,"x_min":0,"x_max":434,"o":"m 0 260 l 0 347 l 434 347 l 434 260 l 0 260 m 0 434 l 0 521 l 434 521 l 434 434 l 0 434 z "},">":{"ha":363,"x_min":0,"x_max":260,"o":"m 0 174 l 0 260 l 87 260 l 87 174 l 0 174 m 87 260 l 87 347 l 174 347 l 174 260 l 87 260 m 174 347 l 174 434 l 260 434 l 260 347 l 174 347 m 87 434 l 87 521 l 174 521 l 174 434 l 87 434 m 0 521 l 0 608 l 87 608 l 87 521 l 0 521 z "},"?":{"ha":450,"x_min":0,"x_max":347,"o":"m 87 0 l 87 174 l 174 174 l 174 0 l 87 0 m 87 260 l 87 434 l 174 434 l 174 260 l 87 260 m 174 434 l 174 521 l 260 521 l 260 434 l 174 434 m 260 521 l 260 694 l 347 694 l 347 521 l 260 521 m 0 694 l 0 781 l 260 781 l 260 694 l 0 694 z "},"@":{"ha":711,"x_min":0,"x_max":608,"o":"m 174 0 l 174 87 l 521 87 l 521 0 l 174 0 m 87 87 l 87 174 l 174 174 l 174 87 l 87 87 m 174 260 l 174 521 l 260 521 l 260 260 l 174 260 m 0 174 l 0 608 l 87 608 l 87 174 l 0 174 m 260 174 l 260 260 l 347 260 l 347 521 l 260 521 l 260 608 l 434 608 l 434 260 l 521 260 l 521 174 l 260 174 m 521 260 l 521 608 l 608 608 l 608 260 l 521 260 m 87 608 l 87 694 l 174 694 l 174 608 l 87 608 m 434 608 l 434 694 l 521 694 l 521 608 l 434 608 m 174 694 l 174 781 l 434 781 l 434 694 l 174 694 z "},"A":{"ha":537,"x_min":0,"x_max":434,"o":"m 0 0 l 0 347 l 87 347 l 87 608 l 174 608 l 174 347 l 260 347 l 260 608 l 347 608 l 347 347 l 434 347 l 434 0 l 347 0 l 347 260 l 87 260 l 87 0 l 0 0 m 174 608 l 174 781 l 260 781 l 260 608 l 174 608 z "},"B":{"ha":537,"x_min":0,"x_max":434,"o":"m 347 87 l 347 347 l 434 347 l 434 87 l 347 87 m 347 434 l 347 694 l 434 694 l 434 434 l 347 434 m 0 0 l 0 781 l 347 781 l 347 694 l 87 694 l 87 434 l 347 434 l 347 347 l 87 347 l 87 87 l 347 87 l 347 0 l 0 0 z "},"C":{"ha":537,"x_min":0,"x_max":434,"o":"m 87 0 l 87 87 l 434 87 l 434 0 l 87 0 m 0 87 l 0 694 l 87 694 l 87 87 l 0 87 m 87 694 l 87 781 l 434 781 l 434 694 l 87 694 z "},"D":{"ha":537,"x_min":0,"x_max":434,"o":"m 347 87 l 347 694 l 434 694 l 434 87 l 347 87 m 0 0 l 0 781 l 347 781 l 347 694 l 87 694 l 87 87 l 347 87 l 347 0 l 0 0 z "},"E":{"ha":450,"x_min":0,"x_max":347,"o":"m 0 0 l 0 781 l 347 781 l 347 694 l 87 694 l 87 434 l 347 434 l 347 347 l 87 347 l 87 87 l 347 87 l 347 0 l 0 0 z "},"F":{"ha":450,"x_min":0,"x_max":347,"o":"m 0 0 l 0 781 l 347 781 l 347 694 l 87 694 l 87 434 l 347 434 l 347 347 l 87 347 l 87 0 l 0 0 z "},"G":{"ha":537,"x_min":0,"x_max":434,"o":"m 87 0 l 87 87 l 347 87 l 347 0 l 87 0 m 347 87 l 347 347 l 174 347 l 174 434 l 434 434 l 434 87 l 347 87 m 0 87 l 0 694 l 87 694 l 87 87 l 0 87 m 87 694 l 87 781 l 434 781 l 434 694 l 87 694 z "},"H":{"ha":537,"x_min":0,"x_max":434,"o":"m 0 0 l 0 781 l 87 781 l 87 434 l 347 434 l 347 781 l 434 781 l 434 0 l 347 0 l 347 347 l 87 347 l 87 0 l 0 0 z "},"I":{"ha":190,"x_min":0,"x_max":87,"o":"m 0 0 l 0 781 l 87 781 l 87 0 l 0 0 z "},"J":{"ha":450,"x_min":0,"x_max":347,"o":"m 0 0 l 0 87 l 260 87 l 260 0 l 0 0 m 260 87 l 260 781 l 347 781 l 347 87 l 260 87 z "},"K":{"ha":537,"x_min":0,"x_max":434,"o":"m 347 0 l 347 87 l 434 87 l 434 0 l 347 0 m 260 87 l 260 260 l 347 260 l 347 87 l 260 87 m 174 260 l 174 347 l 260 347 l 260 260 l 174 260 m 174 434 l 174 521 l 260 521 l 260 434 l 174 434 m 260 521 l 260 694 l 347 694 l 347 521 l 260 521 m 0 0 l 0 781 l 87 781 l 87 434 l 174 434 l 174 347 l 87 347 l 87 0 l 0 0 m 347 694 l 347 781 l 434 781 l 434 694 l 347 694 z "},"L":{"ha":450,"x_min":0,"x_max":347,"o":"m 0 0 l 0 781 l 87 781 l 87 87 l 347 87 l 347 0 l 0 0 z "},"M":{"ha":537,"x_min":0,"x_max":434,"o":"m 174 260 l 174 434 l 260 434 l 260 260 l 174 260 m 0 0 l 0 781 l 87 781 l 87 608 l 174 608 l 174 434 l 87 434 l 87 0 l 0 0 m 347 0 l 347 434 l 260 434 l 260 608 l 347 608 l 347 781 l 434 781 l 434 0 l 347 0 z "},"N":{"ha":537,"x_min":0,"x_max":434,"o":"m 174 347 l 174 521 l 260 521 l 260 347 l 174 347 m 0 0 l 0 781 l 87 781 l 87 694 l 174 694 l 174 521 l 87 521 l 87 0 l 0 0 m 347 0 l 347 174 l 260 174 l 260 347 l 347 347 l 347 781 l 434 781 l 434 0 l 347 0 z "},"O":{"ha":537,"x_min":0,"x_max":434,"o":"m 87 0 l 87 87 l 347 87 l 347 0 l 87 0 m 0 87 l 0 694 l 87 694 l 87 87 l 0 87 m 347 87 l 347 694 l 434 694 l 434 87 l 347 87 m 87 694 l 87 781 l 347 781 l 347 694 l 87 694 z "},"P":{"ha":537,"x_min":0,"x_max":434,"o":"m 347 434 l 347 694 l 434 694 l 434 434 l 347 434 m 0 0 l 0 781 l 347 781 l 347 694 l 87 694 l 87 434 l 347 434 l 347 347 l 87 347 l 87 0 l 0 0 z "},"Q":{"ha":537,"x_min":0,"x_max":434,"o":"m 260 -87 l 260 0 l 87 0 l 87 87 l 174 87 l 174 174 l 260 174 l 260 87 l 347 87 l 347 0 l 434 0 l 434 -87 l 260 -87 m 0 87 l 0 694 l 87 694 l 87 87 l 0 87 m 347 87 l 347 694 l 434 694 l 434 87 l 347 87 m 87 694 l 87 781 l 347 781 l 347 694 l 87 694 z "},"R":{"ha":537,"x_min":0,"x_max":434,"o":"m 347 0 l 347 174 l 434 174 l 434 0 l 347 0 m 347 434 l 347 694 l 434 694 l 434 434 l 347 434 m 0 0 l 0 781 l 347 781 l 347 694 l 87 694 l 87 434 l 347 434 l 347 174 l 260 174 l 260 347 l 87 347 l 87 0 l 0 0 z "},"S":{"ha":450,"x_min":0,"x_max":347,"o":"m 0 0 l 0 87 l 260 87 l 260 0 l 0 0 m 260 87 l 260 347 l 347 347 l 347 87 l 260 87 m 87 347 l 87 434 l 260 434 l 260 347 l 87 347 m 0 434 l 0 694 l 87 694 l 87 434 l 0 434 m 87 694 l 87 781 l 347 781 l 347 694 l 87 694 z "},"T":{"ha":537,"x_min":0,"x_max":434,"o":"m 174 0 l 174 694 l 0 694 l 0 781 l 434 781 l 434 694 l 260 694 l 260 0 l 174 0 z "},"U":{"ha":537,"x_min":0,"x_max":434,"o":"m 87 0 l 87 87 l 347 87 l 347 0 l 87 0 m 0 87 l 0 781 l 87 781 l 87 87 l 0 87 m 347 87 l 347 781 l 434 781 l 434 87 l 347 87 z "},"V":{"ha":537,"x_min":0,"x_max":434,"o":"m 174 0 l 174 174 l 260 174 l 260 0 l 174 0 m 87 174 l 87 521 l 174 521 l 174 174 l 87 174 m 260 174 l 260 521 l 347 521 l 347 174 l 260 174 m 0 521 l 0 781 l 87 781 l 87 521 l 0 521 m 347 521 l 347 781 l 434 781 l 434 521 l 347 521 z "},"W":{"ha":537,"x_min":0,"x_max":434,"o":"m 87 0 l 87 260 l 174 260 l 174 0 l 87 0 m 260 0 l 260 260 l 347 260 l 347 0 l 260 0 m 174 260 l 174 608 l 260 608 l 260 260 l 174 260 m 0 260 l 0 781 l 87 781 l 87 260 l 0 260 m 347 260 l 347 781 l 434 781 l 434 260 l 347 260 z "},"X":{"ha":537,"x_min":0,"x_max":434,"o":"m 0 0 l 0 174 l 87 174 l 87 0 l 0 0 m 347 0 l 347 174 l 434 174 l 434 0 l 347 0 m 87 174 l 87 347 l 174 347 l 174 174 l 87 174 m 260 174 l 260 347 l 347 347 l 347 174 l 260 174 m 174 347 l 174 434 l 260 434 l 260 347 l 174 347 m 87 434 l 87 608 l 174 608 l 174 434 l 87 434 m 260 434 l 260 608 l 347 608 l 347 434 l 260 434 m 0 608 l 0 781 l 87 781 l 87 608 l 0 608 m 347 608 l 347 781 l 434 781 l 434 608 l 347 608 z "},"Y":{"ha":537,"x_min":0,"x_max":434,"o":"m 174 0 l 174 434 l 260 434 l 260 0 l 174 0 m 87 434 l 87 608 l 174 608 l 174 434 l 87 434 m 260 434 l 260 608 l 347 608 l 347 434 l 260 434 m 0 608 l 0 781 l 87 781 l 87 608 l 0 608 m 347 608 l 347 781 l 434 781 l 434 608 l 347 608 z "},"Z":{"ha":450,"x_min":0,"x_max":347,"o":"m 0 0 l 0 174 l 87 174 l 87 87 l 347 87 l 347 0 l 0 0 m 87 174 l 87 434 l 174 434 l 174 608 l 260 608 l 260 347 l 174 347 l 174 174 l 87 174 m 260 608 l 260 694 l 0 694 l 0 781 l 347 781 l 347 608 l 260 608 z "},"[":{"ha":363,"x_min":0,"x_max":260,"o":"m 0 0 l 0 781 l 260 781 l 260 694 l 87 694 l 87 87 l 260 87 l 260 0 l 0 0 z "},"\\":{"ha":363,"x_min":0,"x_max":260,"o":"m 174 0 l 174 260 l 260 260 l 260 0 l 174 0 m 87 260 l 87 521 l 174 521 l 174 260 l 87 260 m 0 521 l 0 781 l 87 781 l 87 521 l 0 521 z "},"]":{"ha":363,"x_min":0,"x_max":260,"o":"m 0 0 l 0 87 l 174 87 l 174 694 l 0 694 l 0 781 l 260 781 l 260 0 l 0 0 z "},"^":{"ha":363,"x_min":0,"x_max":260,"o":"m 0 608 l 0 694 l 87 694 l 87 608 l 0 608 m 174 608 l 174 694 l 260 694 l 260 608 l 174 608 m 87 694 l 87 781 l 174 781 l 174 694 l 87 694 z "},"_":{"ha":537,"x_min":0,"x_max":434,"o":"m 0 0 l 0 87 l 434 87 l 434 0 l 0 0 z "},"a":{"ha":537,"x_min":0,"x_max":434,"o":"m 0 87 l 0 260 l 87 260 l 87 87 l 0 87 m 87 0 l 87 87 l 347 87 l 347 260 l 87 260 l 87 347 l 347 347 l 347 434 l 434 434 l 434 0 l 87 0 m 0 434 l 0 521 l 347 521 l 347 434 l 0 434 z "},"b":{"ha":537,"x_min":0,"x_max":434,"o":"m 347 87 l 347 434 l 434 434 l 434 87 l 347 87 m 0 0 l 0 781 l 87 781 l 87 521 l 347 521 l 347 434 l 87 434 l 87 87 l 347 87 l 347 0 l 0 0 z "},"c":{"ha":537,"x_min":0,"x_max":434,"o":"m 87 0 l 87 87 l 434 87 l 434 0 l 87 0 m 0 87 l 0 434 l 87 434 l 87 87 l 0 87 m 87 434 l 87 521 l 434 521 l 434 434 l 87 434 z "},"d":{"ha":537,"x_min":0,"x_max":434,"o":"m 0 87 l 0 434 l 87 434 l 87 87 l 0 87 m 87 0 l 87 87 l 347 87 l 347 434 l 87 434 l 87 521 l 347 521 l 347 781 l 434 781 l 434 0 l 87 0 z "},"e":{"ha":537,"x_min":0,"x_max":434,"o":"m 87 0 l 87 87 l 434 87 l 434 0 l 87 0 m 0 87 l 0 434 l 87 434 l 87 347 l 347 347 l 347 434 l 434 434 l 434 260 l 87 260 l 87 87 l 0 87 m 87 434 l 87 521 l 347 521 l 347 434 l 87 434 z "},"f":{"ha":450,"x_min":0,"x_max":347,"o":"m 87 0 l 87 434 l 0 434 l 0 521 l 87 521 l 87 694 l 174 694 l 174 521 l 347 521 l 347 434 l 174 434 l 174 0 l 87 0 m 174 694 l 174 781 l 347 781 l 347 694 l 174 694 z "},"g":{"ha":537,"x_min":0,"x_max":434,"o":"m 0 -87 l 0 0 l 347 0 l 347 -87 l 0 -87 m 0 174 l 0 434 l 87 434 l 87 174 l 0 174 m 347 0 l 347 87 l 87 87 l 87 174 l 347 174 l 347 434 l 87 434 l 87 521 l 434 521 l 434 0 l 347 0 z "},"h":{"ha":537,"x_min":0,"x_max":434,"o":"m 347 0 l 347 434 l 434 434 l 434 0 l 347 0 m 0 0 l 0 781 l 87 781 l 87 521 l 347 521 l 347 434 l 87 434 l 87 0 l 0 0 z "},"i":{"ha":190,"x_min":0,"x_max":87,"o":"m 0 0 l 0 521 l 87 521 l 87 0 l 0 0 m 0 608 l 0 694 l 87 694 l 87 608 l 0 608 z "},"j":{"ha":363,"x_min":0,"x_max":260,"o":"m 0 -87 l 0 0 l 174 0 l 174 -87 l 0 -87 m 174 0 l 174 521 l 260 521 l 260 0 l 174 0 m 174 608 l 174 694 l 260 694 l 260 608 l 174 608 z "},"k":{"ha":450,"x_min":0,"x_max":347,"o":"m 260 0 l 260 174 l 347 174 l 347 0 l 260 0 m 174 174 l 174 260 l 260 260 l 260 174 l 174 174 m 174 347 l 174 434 l 260 434 l 260 347 l 174 347 m 260 434 l 260 521 l 347 521 l 347 434 l 260 434 m 0 0 l 0 781 l 87 781 l 87 347 l 174 347 l 174 260 l 87 260 l 87 0 l 0 0 z "},"l":{"ha":277,"x_min":0,"x_max":174,"o":"m 87 0 l 87 87 l 174 87 l 174 0 l 87 0 m 0 87 l 0 781 l 87 781 l 87 87 l 0 87 z "},"m":{"ha":711,"x_min":0,"x_max":608,"o":"m 521 0 l 521 434 l 608 434 l 608 0 l 521 0 m 0 0 l 0 521 l 521 521 l 521 434 l 347 434 l 347 0 l 260 0 l 260 434 l 87 434 l 87 0 l 0 0 z "},"n":{"ha":537,"x_min":0,"x_max":434,"o":"m 347 0 l 347 434 l 434 434 l 434 0 l 347 0 m 0 0 l 0 521 l 347 521 l 347 434 l 87 434 l 87 0 l 0 0 z "},"o":{"ha":537,"x_min":0,"x_max":434,"o":"m 87 0 l 87 87 l 347 87 l 347 0 l 87 0 m 0 87 l 0 434 l 87 434 l 87 87 l 0 87 m 347 87 l 347 434 l 434 434 l 434 87 l 347 87 m 87 434 l 87 521 l 347 521 l 347 434 l 87 434 z "},"p":{"ha":537,"x_min":0,"x_max":434,"o":"m 347 174 l 347 434 l 434 434 l 434 174 l 347 174 m 0 -87 l 0 521 l 347 521 l 347 434 l 87 434 l 87 174 l 347 174 l 347 87 l 87 87 l 87 -87 l 0 -87 z "},"q":{"ha":537,"x_min":0,"x_max":434,"o":"m 0 174 l 0 434 l 87 434 l 87 174 l 0 174 m 347 -87 l 347 87 l 87 87 l 87 174 l 347 174 l 347 434 l 87 434 l 87 521 l 434 521 l 434 -87 l 347 -87 z "},"r":{"ha":450,"x_min":0,"x_max":347,"o":"m 0 0 l 0 521 l 87 521 l 87 434 l 174 434 l 174 347 l 87 347 l 87 0 l 0 0 m 174 434 l 174 521 l 347 521 l 347 434 l 174 434 z "},"s":{"ha":450,"x_min":0,"x_max":347,"o":"m 0 0 l 0 87 l 260 87 l 260 0 l 0 0 m 260 87 l 260 260 l 347 260 l 347 87 l 260 87 m 87 260 l 87 347 l 260 347 l 260 260 l 87 260 m 0 347 l 0 434 l 87 434 l 87 347 l 0 347 m 87 434 l 87 521 l 347 521 l 347 434 l 87 434 z "},"t":{"ha":450,"x_min":0,"x_max":347,"o":"m 174 0 l 174 87 l 347 87 l 347 0 l 174 0 m 87 87 l 87 434 l 0 434 l 0 521 l 87 521 l 87 694 l 174 694 l 174 521 l 347 521 l 347 434 l 174 434 l 174 87 l 87 87 z "},"u":{"ha":537,"x_min":0,"x_max":434,"o":"m 0 87 l 0 521 l 87 521 l 87 87 l 0 87 m 87 0 l 87 87 l 347 87 l 347 521 l 434 521 l 434 0 l 87 0 z "},"v":{"ha":537,"x_min":0,"x_max":434,"o":"m 174 0 l 174 174 l 260 174 l 260 0 l 174 0 m 87 174 l 87 347 l 174 347 l 174 174 l 87 174 m 260 174 l 260 347 l 347 347 l 347 174 l 260 174 m 0 347 l 0 521 l 87 521 l 87 347 l 0 347 m 347 347 l 347 521 l 434 521 l 434 347 l 347 347 z "},"w":{"ha":537,"x_min":0,"x_max":434,"o":"m 87 0 l 87 174 l 174 174 l 174 0 l 87 0 m 260 0 l 260 174 l 347 174 l 347 0 l 260 0 m 174 174 l 174 434 l 260 434 l 260 174 l 174 174 m 0 174 l 0 521 l 87 521 l 87 174 l 0 174 m 347 174 l 347 521 l 434 521 l 434 174 l 347 174 z "},"x":{"ha":537,"x_min":0,"x_max":434,"o":"m 0 0 l 0 87 l 87 87 l 87 0 l 0 0 m 347 0 l 347 87 l 434 87 l 434 0 l 347 0 m 87 87 l 87 174 l 174 174 l 174 87 l 87 87 m 260 87 l 260 174 l 347 174 l 347 87 l 260 87 m 174 174 l 174 347 l 260 347 l 260 174 l 174 174 m 87 347 l 87 434 l 174 434 l 174 347 l 87 347 m 260 347 l 260 434 l 347 434 l 347 347 l 260 347 m 0 434 l 0 521 l 87 521 l 87 434 l 0 434 m 347 434 l 347 521 l 434 521 l 434 434 l 347 434 z "},"y":{"ha":537,"x_min":0,"x_max":434,"o":"m 0 -87 l 0 0 l 174 0 l 174 -87 l 0 -87 m 174 0 l 174 174 l 260 174 l 260 0 l 174 0 m 87 174 l 87 347 l 174 347 l 174 174 l 87 174 m 260 174 l 260 347 l 347 347 l 347 174 l 260 174 m 0 347 l 0 521 l 87 521 l 87 347 l 0 347 m 347 347 l 347 521 l 434 521 l 434 347 l 347 347 z "},"z":{"ha":537,"x_min":0,"x_max":434,"o":"m 0 0 l 0 174 l 87 174 l 87 87 l 434 87 l 434 0 l 0 0 m 87 174 l 87 260 l 174 260 l 174 174 l 87 174 m 174 260 l 174 347 l 260 347 l 260 260 l 174 260 m 260 347 l 260 434 l 0 434 l 0 521 l 434 521 l 434 434 l 347 434 l 347 347 l 260 347 z "},"{":{"ha":450,"x_min":0,"x_max":347,"o":"m 174 0 l 174 87 l 347 87 l 347 0 l 174 0 m 87 87 l 87 347 l 174 347 l 174 87 l 87 87 m 0 347 l 0 434 l 87 434 l 87 347 l 0 347 m 87 434 l 87 694 l 174 694 l 174 434 l 87 434 m 174 694 l 174 781 l 347 781 l 347 694 l 174 694 z "},"|":{"ha":190,"x_min":0,"x_max":87,"o":"m 0 0 l 0 781 l 87 781 l 87 0 l 0 0 z "},"}":{"ha":450,"x_min":0,"x_max":347,"o":"m 0 0 l 0 87 l 174 87 l 174 0 l 0 0 m 174 87 l 174 347 l 260 347 l 260 87 l 174 87 m 260 347 l 260 434 l 347 434 l 347 347 l 260 347 m 174 434 l 174 694 l 260 694 l 260 434 l 174 434 m 0 694 l 0 781 l 174 781 l 174 694 l 0 694 z "},"~":{"ha":537,"x_min":0,"x_max":434,"o":"m 260 521 l 260 608 l 347 608 l 347 521 l 260 521 m 0 608 l 0 694 l 87 694 l 87 608 l 0 608 m 174 608 l 174 694 l 260 694 l 260 608 l 174 608 m 347 608 l 347 694 l 434 694 l 434 608 l 347 608 m 87 694 l 87 781 l 174 781 l 174 694 l 87 694 z "},"¡":{"ha":190,"x_min":0,"x_max":87,"o":"m 0 0 l 0 521 l 87 521 l 87 0 l 0 0 m 0 608 l 0 781 l 87 781 l 87 608 l 0 608 z "},"¢":{"ha":624,"x_min":0,"x_max":521,"o":"m 434 174 l 434 260 l 521 260 l 521 174 l 434 174 m 174 260 l 174 521 l 260 521 l 260 260 l 174 260 m 87 0 l 87 174 l 0 174 l 0 608 l 87 608 l 87 260 l 174 260 l 174 174 l 434 174 l 434 87 l 174 87 l 174 0 l 87 0 m 434 521 l 434 608 l 521 608 l 521 521 l 434 521 m 260 521 l 260 608 l 87 608 l 87 694 l 260 694 l 260 781 l 347 781 l 347 694 l 434 694 l 434 608 l 347 608 l 347 521 l 260 521 z "},"£":{"ha":537,"x_min":0,"x_max":434,"o":"m 0 0 l 0 174 l 87 174 l 87 87 l 434 87 l 434 0 l 0 0 m 87 174 l 87 260 l 174 260 l 174 174 l 87 174 m 174 260 l 174 347 l 0 347 l 0 434 l 174 434 l 174 521 l 260 521 l 260 434 l 434 434 l 434 347 l 260 347 l 260 260 l 174 260 m 87 521 l 87 694 l 174 694 l 174 521 l 87 521 m 347 608 l 347 694 l 434 694 l 434 608 l 347 608 m 174 694 l 174 781 l 347 781 l 347 694 l 174 694 z "},"©":{"ha":884,"x_min":0,"x_max":781,"o":"m 174 0 l 174 87 l 608 87 l 608 0 l 174 0 m 87 87 l 87 174 l 174 174 l 174 87 l 87 87 m 608 87 l 608 174 l 694 174 l 694 87 l 608 87 m 260 174 l 260 260 l 521 260 l 521 174 l 260 174 m 521 260 l 521 347 l 608 347 l 608 260 l 521 260 m 174 260 l 174 521 l 260 521 l 260 260 l 174 260 m 521 434 l 521 521 l 608 521 l 608 434 l 521 434 m 0 174 l 0 608 l 87 608 l 87 174 l 0 174 m 260 521 l 260 608 l 521 608 l 521 521 l 260 521 m 694 174 l 694 608 l 781 608 l 781 174 l 694 174 m 87 608 l 87 694 l 174 694 l 174 608 l 87 608 m 608 608 l 608 694 l 694 694 l 694 608 l 608 608 m 174 694 l 174 781 l 608 781 l 608 694 l 174 694 z "},"®":{"ha":884,"x_min":0,"x_max":781,"o":"m 174 0 l 174 87 l 608 87 l 608 0 l 174 0 m 87 87 l 87 174 l 174 174 l 174 87 l 87 87 m 608 87 l 608 174 l 694 174 l 694 87 l 608 87 m 521 174 l 521 260 l 608 260 l 608 174 l 521 174 m 521 434 l 521 521 l 608 521 l 608 434 l 521 434 m 0 174 l 0 608 l 87 608 l 87 174 l 0 174 m 174 174 l 174 608 l 521 608 l 521 521 l 260 521 l 260 434 l 521 434 l 521 260 l 434 260 l 434 347 l 260 347 l 260 174 l 174 174 m 694 174 l 694 608 l 781 608 l 781 174 l 694 174 m 87 608 l 87 694 l 174 694 l 174 608 l 87 608 m 608 608 l 608 694 l 694 694 l 694 608 l 608 608 m 174 694 l 174 781 l 608 781 l 608 694 l 174 694 z "},"±":{"ha":537,"x_min":0,"x_max":434,"o":"m 0 87 l 0 174 l 434 174 l 434 87 l 0 87 m 174 260 l 174 434 l 0 434 l 0 521 l 174 521 l 174 694 l 260 694 l 260 521 l 434 521 l 434 434 l 260 434 l 260 260 l 174 260 z "},"¿":{"ha":450,"x_min":0,"x_max":347,"o":"m 87 0 l 87 87 l 347 87 l 347 0 l 87 0 m 0 87 l 0 260 l 87 260 l 87 87 l 0 87 m 87 260 l 87 347 l 174 347 l 174 260 l 87 260 m 174 347 l 174 521 l 260 521 l 260 347 l 174 347 m 174 608 l 174 781 l 260 781 l 260 608 l 174 608 z "},"À":{"ha":537,"x_min":0,"x_max":434,"o":"m 0 0 l 0 347 l 87 347 l 87 608 l 174 608 l 174 347 l 260 347 l 260 608 l 347 608 l 347 347 l 434 347 l 434 0 l 347 0 l 347 260 l 87 260 l 87 0 l 0 0 m 174 608 l 174 694 l 260 694 l 260 608 l 174 608 m 260 781 l 260 868 l 347 868 l 347 781 l 260 781 m 174 868 l 174 955 l 260 955 l 260 868 l 174 868 z "},"Á":{"ha":537,"x_min":0,"x_max":434,"o":"m 0 0 l 0 347 l 87 347 l 87 608 l 174 608 l 174 347 l 260 347 l 260 608 l 347 608 l 347 347 l 434 347 l 434 0 l 347 0 l 347 260 l 87 260 l 87 0 l 0 0 m 174 608 l 174 694 l 260 694 l 260 608 l 174 608 m 87 781 l 87 868 l 174 868 l 174 781 l 87 781 m 174 868 l 174 955 l 260 955 l 260 868 l 174 868 z "},"Â":{"ha":537,"x_min":0,"x_max":434,"o":"m 0 0 l 0 347 l 87 347 l 87 608 l 174 608 l 174 347 l 260 347 l 260 608 l 347 608 l 347 347 l 434 347 l 434 0 l 347 0 l 347 260 l 87 260 l 87 0 l 0 0 m 174 608 l 174 694 l 260 694 l 260 608 l 174 608 m 87 781 l 87 868 l 174 868 l 174 781 l 87 781 m 260 781 l 260 868 l 347 868 l 347 781 l 260 781 m 174 868 l 174 955 l 260 955 l 260 868 l 174 868 z "},"Ä":{"ha":537,"x_min":0,"x_max":434,"o":"m 0 0 l 0 347 l 87 347 l 87 608 l 174 608 l 174 347 l 260 347 l 260 608 l 347 608 l 347 347 l 434 347 l 434 0 l 347 0 l 347 260 l 87 260 l 87 0 l 0 0 m 174 608 l 174 694 l 260 694 l 260 608 l 174 608 m 87 781 l 87 868 l 174 868 l 174 781 l 87 781 m 260 781 l 260 868 l 347 868 l 347 781 l 260 781 z "},"Ç":{"ha":450,"x_min":0,"x_max":347,"o":"m 87 -87 l 87 0 l 174 0 l 174 -87 l 87 -87 m 174 0 l 174 87 l 87 87 l 87 174 l 347 174 l 347 87 l 260 87 l 260 0 l 174 0 m 0 174 l 0 694 l 87 694 l 87 174 l 0 174 m 87 694 l 87 781 l 347 781 l 347 694 l 87 694 z "},"È":{"ha":450,"x_min":0,"x_max":347,"o":"m 0 0 l 0 694 l 347 694 l 347 608 l 87 608 l 87 434 l 347 434 l 347 347 l 87 347 l 87 87 l 347 87 l 347 0 l 0 0 m 174 781 l 174 868 l 260 868 l 260 781 l 174 781 m 87 868 l 87 955 l 174 955 l 174 868 l 87 868 z "},"É":{"ha":450,"x_min":0,"x_max":347,"o":"m 0 0 l 0 694 l 347 694 l 347 608 l 87 608 l 87 434 l 347 434 l 347 347 l 87 347 l 87 87 l 347 87 l 347 0 l 0 0 m 87 781 l 87 868 l 174 868 l 174 781 l 87 781 m 174 868 l 174 955 l 260 955 l 260 868 l 174 868 z "},"Ê":{"ha":450,"x_min":0,"x_max":347,"o":"m 0 0 l 0 694 l 347 694 l 347 608 l 87 608 l 87 434 l 347 434 l 347 347 l 87 347 l 87 87 l 347 87 l 347 0 l 0 0 m 87 781 l 87 868 l 174 868 l 174 781 l 87 781 m 260 781 l 260 868 l 347 868 l 347 781 l 260 781 m 174 868 l 174 955 l 260 955 l 260 868 l 174 868 z "},"Ë":{"ha":450,"x_min":0,"x_max":347,"o":"m 0 0 l 0 694 l 347 694 l 347 608 l 87 608 l 87 434 l 347 434 l 347 347 l 87 347 l 87 87 l 347 87 l 347 0 l 0 0 m 87 781 l 87 868 l 174 868 l 174 781 l 87 781 m 260 781 l 260 868 l 347 868 l 347 781 l 260 781 z "},"Ì":{"ha":277,"x_min":0,"x_max":174,"o":"m 87 0 l 87 694 l 174 694 l 174 0 l 87 0 m 87 781 l 87 868 l 174 868 l 174 781 l 87 781 m 0 868 l 0 955 l 87 955 l 87 868 l 0 868 z "},"Í":{"ha":277,"x_min":0,"x_max":174,"o":"m 0 0 l 0 694 l 87 694 l 87 0 l 0 0 m 0 781 l 0 868 l 87 868 l 87 781 l 0 781 m 87 868 l 87 955 l 174 955 l 174 868 l 87 868 z "},"Î":{"ha":363,"x_min":0,"x_max":260,"o":"m 87 0 l 87 694 l 174 694 l 174 0 l 87 0 m 0 781 l 0 868 l 87 868 l 87 781 l 0 781 m 174 781 l 174 868 l 260 868 l 260 781 l 174 781 m 87 868 l 87 955 l 174 955 l 174 868 l 87 868 z "},"Ï":{"ha":363,"x_min":0,"x_max":260,"o":"m 87 0 l 87 694 l 174 694 l 174 0 l 87 0 m 0 781 l 0 868 l 87 868 l 87 781 l 0 781 m 174 781 l 174 868 l 260 868 l 260 781 l 174 781 z "},"Ñ":{"ha":537,"x_min":0,"x_max":434,"o":"m 174 260 l 174 434 l 260 434 l 260 260 l 174 260 m 0 0 l 0 694 l 87 694 l 87 608 l 174 608 l 174 434 l 87 434 l 87 0 l 0 0 m 347 0 l 347 87 l 260 87 l 260 260 l 347 260 l 347 694 l 434 694 l 434 0 l 347 0 z "},"Ò":{"ha":537,"x_min":0,"x_max":434,"o":"m 87 0 l 87 87 l 347 87 l 347 0 l 87 0 m 0 87 l 0 608 l 87 608 l 87 87 l 0 87 m 347 87 l 347 608 l 434 608 l 434 87 l 347 87 m 87 608 l 87 694 l 347 694 l 347 608 l 87 608 m 174 781 l 174 868 l 260 868 l 260 781 l 174 781 m 87 868 l 87 955 l 174 955 l 174 868 l 87 868 z "},"Ó":{"ha":537,"x_min":0,"x_max":434,"o":"m 87 0 l 87 87 l 347 87 l 347 0 l 87 0 m 0 87 l 0 608 l 87 608 l 87 87 l 0 87 m 347 87 l 347 608 l 434 608 l 434 87 l 347 87 m 87 608 l 87 694 l 347 694 l 347 608 l 87 608 m 174 781 l 174 868 l 260 868 l 260 781 l 174 781 m 260 868 l 260 955 l 347 955 l 347 868 l 260 868 z "},"Ô":{"ha":537,"x_min":0,"x_max":434,"o":"m 87 0 l 87 87 l 347 87 l 347 0 l 87 0 m 0 87 l 0 608 l 87 608 l 87 87 l 0 87 m 347 87 l 347 608 l 434 608 l 434 87 l 347 87 m 87 608 l 87 694 l 347 694 l 347 608 l 87 608 z "},"Ö":{"ha":537,"x_min":0,"x_max":434,"o":"m 87 0 l 87 87 l 347 87 l 347 0 l 87 0 m 0 87 l 0 608 l 87 608 l 87 87 l 0 87 m 347 87 l 347 608 l 434 608 l 434 87 l 347 87 m 87 608 l 87 694 l 347 694 l 347 608 l 87 608 m 87 781 l 87 868 l 174 868 l 174 781 l 87 781 m 260 781 l 260 868 l 347 868 l 347 781 l 260 781 z "},"×":{"ha":537,"x_min":0,"x_max":434,"o":"m 0 174 l 0 260 l 87 260 l 87 174 l 0 174 m 347 174 l 347 260 l 434 260 l 434 174 l 347 174 m 87 260 l 87 347 l 174 347 l 174 260 l 87 260 m 260 260 l 260 347 l 347 347 l 347 260 l 260 260 m 174 347 l 174 434 l 260 434 l 260 347 l 174 347 m 87 434 l 87 521 l 174 521 l 174 434 l 87 434 m 260 434 l 260 521 l 347 521 l 347 434 l 260 434 m 0 521 l 0 608 l 87 608 l 87 521 l 0 521 m 347 521 l 347 608 l 434 608 l 434 521 l 347 521 z "},"Ù":{"ha":537,"x_min":0,"x_max":434,"o":"m 87 0 l 87 87 l 347 87 l 347 0 l 87 0 m 0 87 l 0 694 l 87 694 l 87 87 l 0 87 m 347 87 l 347 694 l 434 694 l 434 87 l 347 87 m 174 781 l 174 868 l 260 868 l 260 781 l 174 781 m 87 868 l 87 955 l 174 955 l 174 868 l 87 868 z "},"Ú":{"ha":537,"x_min":0,"x_max":434,"o":"m 87 0 l 87 87 l 347 87 l 347 0 l 87 0 m 0 87 l 0 694 l 87 694 l 87 87 l 0 87 m 347 87 l 347 694 l 434 694 l 434 87 l 347 87 m 174 781 l 174 868 l 260 868 l 260 781 l 174 781 m 260 868 l 260 955 l 347 955 l 347 868 l 260 868 z "},"Û":{"ha":537,"x_min":0,"x_max":434,"o":"m 87 0 l 87 87 l 347 87 l 347 0 l 87 0 m 0 87 l 0 694 l 87 694 l 87 87 l 0 87 m 347 87 l 347 694 l 434 694 l 434 87 l 347 87 m 87 781 l 87 868 l 174 868 l 174 781 l 87 781 m 260 781 l 260 868 l 347 868 l 347 781 l 260 781 m 174 868 l 174 955 l 260 955 l 260 868 l 174 868 z "},"Ü":{"ha":537,"x_min":0,"x_max":434,"o":"m 87 0 l 87 87 l 347 87 l 347 0 l 87 0 m 0 87 l 0 694 l 87 694 l 87 87 l 0 87 m 347 87 l 347 694 l 434 694 l 434 87 l 347 87 m 87 781 l 87 868 l 174 868 l 174 781 l 87 781 m 260 781 l 260 868 l 347 868 l 347 781 l 260 781 z "},"ß":{"ha":537,"x_min":0,"x_max":434,"o":"m 174 87 l 174 174 l 347 174 l 347 87 l 174 87 m 347 174 l 347 434 l 434 434 l 434 174 l 347 174 m 174 434 l 174 521 l 347 521 l 347 434 l 174 434 m 0 0 l 0 694 l 87 694 l 87 0 l 0 0 m 347 521 l 347 694 l 434 694 l 434 521 l 347 521 m 87 694 l 87 781 l 347 781 l 347 694 l 87 694 z "},"à":{"ha":537,"x_min":0,"x_max":434,"o":"m 0 87 l 0 260 l 87 260 l 87 87 l 0 87 m 87 0 l 87 87 l 347 87 l 347 260 l 87 260 l 87 347 l 347 347 l 347 434 l 434 434 l 434 0 l 87 0 m 0 434 l 0 521 l 347 521 l 347 434 l 0 434 m 260 608 l 260 694 l 347 694 l 347 608 l 260 608 m 174 694 l 174 781 l 260 781 l 260 694 l 174 694 z "},"á":{"ha":537,"x_min":0,"x_max":434,"o":"m 0 87 l 0 260 l 87 260 l 87 87 l 0 87 m 87 0 l 87 87 l 347 87 l 347 260 l 87 260 l 87 347 l 347 347 l 347 434 l 434 434 l 434 0 l 87 0 m 0 434 l 0 521 l 347 521 l 347 434 l 0 434 m 174 608 l 174 694 l 260 694 l 260 608 l 174 608 m 260 694 l 260 781 l 347 781 l 347 694 l 260 694 z "},"â":{"ha":537,"x_min":0,"x_max":434,"o":"m 0 87 l 0 260 l 87 260 l 87 87 l 0 87 m 87 0 l 87 87 l 347 87 l 347 260 l 87 260 l 87 347 l 347 347 l 347 434 l 434 434 l 434 0 l 87 0 m 0 434 l 0 521 l 347 521 l 347 434 l 0 434 m 87 608 l 87 694 l 174 694 l 174 608 l 87 608 m 260 608 l 260 694 l 347 694 l 347 608 l 260 608 m 174 694 l 174 781 l 260 781 l 260 694 l 174 694 z "},"ä":{"ha":537,"x_min":0,"x_max":434,"o":"m 0 87 l 0 260 l 87 260 l 87 87 l 0 87 m 87 0 l 87 87 l 347 87 l 347 260 l 87 260 l 87 347 l 347 347 l 347 434 l 434 434 l 434 0 l 87 0 m 0 434 l 0 521 l 347 521 l 347 434 l 0 434 m 87 608 l 87 694 l 174 694 l 174 608 l 87 608 m 260 608 l 260 694 l 347 694 l 347 608 l 260 608 z "},"è":{"ha":537,"x_min":0,"x_max":434,"o":"m 87 0 l 87 87 l 434 87 l 434 0 l 87 0 m 0 87 l 0 434 l 87 434 l 87 347 l 347 347 l 347 434 l 434 434 l 434 260 l 87 260 l 87 87 l 0 87 m 87 434 l 87 521 l 347 521 l 347 434 l 87 434 m 174 608 l 174 694 l 260 694 l 260 608 l 174 608 m 87 694 l 87 781 l 174 781 l 174 694 l 87 694 z "},"é":{"ha":537,"x_min":0,"x_max":434,"o":"m 87 0 l 87 87 l 434 87 l 434 0 l 87 0 m 0 87 l 0 434 l 87 434 l 87 347 l 347 347 l 347 434 l 434 434 l 434 260 l 87 260 l 87 87 l 0 87 m 87 434 l 87 521 l 347 521 l 347 434 l 87 434 m 174 608 l 174 694 l 260 694 l 260 608 l 174 608 m 260 694 l 260 781 l 347 781 l 347 694 l 260 694 z "},"ê":{"ha":537,"x_min":0,"x_max":434,"o":"m 87 0 l 87 87 l 434 87 l 434 0 l 87 0 m 0 87 l 0 434 l 87 434 l 87 347 l 347 347 l 347 434 l 434 434 l 434 260 l 87 260 l 87 87 l 0 87 m 87 434 l 87 521 l 347 521 l 347 434 l 87 434 m 87 608 l 87 694 l 174 694 l 174 608 l 87 608 m 260 608 l 260 694 l 347 694 l 347 608 l 260 608 m 174 694 l 174 781 l 260 781 l 260 694 l 174 694 z "},"ë":{"ha":537,"x_min":0,"x_max":434,"o":"m 87 0 l 87 87 l 434 87 l 434 0 l 87 0 m 0 87 l 0 434 l 87 434 l 87 347 l 347 347 l 347 434 l 434 434 l 434 260 l 87 260 l 87 87 l 0 87 m 87 434 l 87 521 l 347 521 l 347 434 l 87 434 m 87 608 l 87 694 l 174 694 l 174 608 l 87 608 m 260 608 l 260 694 l 347 694 l 347 608 l 260 608 z "},"ì":{"ha":277,"x_min":0,"x_max":174,"o":"m 87 0 l 87 521 l 174 521 l 174 0 l 87 0 m 87 608 l 87 694 l 174 694 l 174 608 l 87 608 m 0 694 l 0 781 l 87 781 l 87 694 l 0 694 z "},"í":{"ha":277,"x_min":0,"x_max":174,"o":"m 0 0 l 0 521 l 87 521 l 87 0 l 0 0 m 0 608 l 0 694 l 87 694 l 87 608 l 0 608 m 87 694 l 87 781 l 174 781 l 174 694 l 87 694 z "},"î":{"ha":363,"x_min":0,"x_max":260,"o":"m 87 0 l 87 521 l 174 521 l 174 0 l 87 0 m 0 608 l 0 694 l 87 694 l 87 608 l 0 608 m 174 608 l 174 694 l 260 694 l 260 608 l 174 608 m 87 694 l 87 781 l 174 781 l 174 694 l 87 694 z "},"ï":{"ha":363,"x_min":0,"x_max":260,"o":"m 87 0 l 87 521 l 174 521 l 174 0 l 87 0 m 0 608 l 0 694 l 87 694 l 87 608 l 0 608 m 174 608 l 174 694 l 260 694 l 260 608 l 174 608 z "},"ñ":{"ha":537,"x_min":0,"x_max":434,"o":"m 347 0 l 347 434 l 434 434 l 434 0 l 347 0 m 0 0 l 0 521 l 347 521 l 347 434 l 87 434 l 87 0 l 0 0 m 87 608 l 87 694 l 174 694 l 174 608 l 87 608 m 260 608 l 260 694 l 347 694 l 347 608 l 260 608 m 174 694 l 174 781 l 260 781 l 260 694 l 174 694 m 347 694 l 347 781 l 434 781 l 434 694 l 347 694 z "},"ò":{"ha":537,"x_min":0,"x_max":434,"o":"m 87 0 l 87 87 l 347 87 l 347 0 l 87 0 m 0 87 l 0 434 l 87 434 l 87 87 l 0 87 m 347 87 l 347 434 l 434 434 l 434 87 l 347 87 m 87 434 l 87 521 l 347 521 l 347 434 l 87 434 m 174 608 l 174 694 l 260 694 l 260 608 l 174 608 m 87 694 l 87 781 l 174 781 l 174 694 l 87 694 z "},"ó":{"ha":537,"x_min":0,"x_max":434,"o":"m 87 0 l 87 87 l 347 87 l 347 0 l 87 0 m 0 87 l 0 434 l 87 434 l 87 87 l 0 87 m 347 87 l 347 434 l 434 434 l 434 87 l 347 87 m 87 434 l 87 521 l 347 521 l 347 434 l 87 434 m 174 608 l 174 694 l 260 694 l 260 608 l 174 608 m 260 694 l 260 781 l 347 781 l 347 694 l 260 694 z "},"ô":{"ha":537,"x_min":0,"x_max":434,"o":"m 87 0 l 87 87 l 347 87 l 347 0 l 87 0 m 0 87 l 0 434 l 87 434 l 87 87 l 0 87 m 347 87 l 347 434 l 434 434 l 434 87 l 347 87 m 87 434 l 87 521 l 347 521 l 347 434 l 87 434 m 87 608 l 87 694 l 174 694 l 174 608 l 87 608 m 260 608 l 260 694 l 347 694 l 347 608 l 260 608 m 174 694 l 174 781 l 260 781 l 260 694 l 174 694 z "},"ö":{"ha":537,"x_min":0,"x_max":434,"o":"m 87 0 l 87 87 l 347 87 l 347 0 l 87 0 m 0 87 l 0 434 l 87 434 l 87 87 l 0 87 m 347 87 l 347 434 l 434 434 l 434 87 l 347 87 m 87 434 l 87 521 l 347 521 l 347 434 l 87 434 m 87 608 l 87 694 l 174 694 l 174 608 l 87 608 m 260 608 l 260 694 l 347 694 l 347 608 l 260 608 z "},"÷":{"ha":537,"x_min":0,"x_max":434,"o":"m 174 174 l 174 260 l 260 260 l 260 174 l 174 174 m 0 347 l 0 434 l 434 434 l 434 347 l 0 347 m 174 521 l 174 608 l 260 608 l 260 521 l 174 521 z "},"ù":{"ha":537,"x_min":0,"x_max":434,"o":"m 0 87 l 0 521 l 87 521 l 87 87 l 0 87 m 87 0 l 87 87 l 347 87 l 347 521 l 434 521 l 434 0 l 87 0 m 174 521 l 174 608 l 260 608 l 260 521 l 174 521 m 87 608 l 87 694 l 174 694 l 174 608 l 87 608 z "},"ú":{"ha":537,"x_min":0,"x_max":434,"o":"m 0 87 l 0 521 l 87 521 l 87 87 l 0 87 m 87 0 l 87 87 l 347 87 l 347 521 l 434 521 l 434 0 l 87 0 m 174 521 l 174 608 l 260 608 l 260 521 l 174 521 m 260 608 l 260 694 l 347 694 l 347 608 l 260 608 z "},"û":{"ha":537,"x_min":0,"x_max":434,"o":"m 0 87 l 0 521 l 87 521 l 87 87 l 0 87 m 87 0 l 87 87 l 347 87 l 347 521 l 434 521 l 434 0 l 87 0 m 87 608 l 87 694 l 174 694 l 174 608 l 87 608 m 260 608 l 260 694 l 347 694 l 347 608 l 260 608 m 174 694 l 174 781 l 260 781 l 260 694 l 174 694 z "},"ü":{"ha":537,"x_min":0,"x_max":434,"o":"m 0 87 l 0 521 l 87 521 l 87 87 l 0 87 m 87 0 l 87 87 l 347 87 l 347 521 l 434 521 l 434 0 l 87 0 m 87 608 l 87 694 l 174 694 l 174 608 l 87 608 m 260 608 l 260 694 l 347 694 l 347 608 l 260 608 z "},"‘":{"ha":277,"x_min":0,"x_max":174,"o":"m 0 434 l 0 521 l 87 521 l 87 434 l 0 434 m 87 521 l 87 608 l 174 608 l 174 521 l 87 521 z "},"’":{"ha":277,"x_min":0,"x_max":174,"o":"m 0 434 l 0 521 l 87 521 l 87 434 l 0 434 m 87 521 l 87 608 l 174 608 l 174 521 l 87 521 z "},"“":{"ha":450,"x_min":0,"x_max":347,"o":"m 0 434 l 0 521 l 87 521 l 87 434 l 0 434 m 174 434 l 174 521 l 260 521 l 260 434 l 174 434 m 87 521 l 87 608 l 174 608 l 174 521 l 87 521 m 260 521 l 260 608 l 347 608 l 347 521 l 260 521 z "},"”":{"ha":450,"x_min":0,"x_max":347,"o":"m 0 434 l 0 521 l 87 521 l 87 434 l 0 434 m 174 434 l 174 521 l 260 521 l 260 434 l 174 434 m 87 521 l 87 608 l 174 608 l 174 521 l 87 521 m 260 521 l 260 608 l 347 608 l 347 521 l 260 521 z "},"…":{"ha":537,"x_min":0,"x_max":434,"o":"m 0 0 l 0 87 l 87 87 l 87 0 l 0 0 m 174 0 l 174 87 l 260 87 l 260 0 l 174 0 m 347 0 l 347 87 l 434 87 l 434 0 l 347 0 z "},"€":{"ha":624,"x_min":0,"x_max":521,"o":"m 260 0 l 260 87 l 434 87 l 434 0 l 260 0 m 174 87 l 174 174 l 260 174 l 260 87 l 174 87 m 434 87 l 434 174 l 521 174 l 521 87 l 434 87 m 87 174 l 87 260 l 0 260 l 0 347 l 87 347 l 87 434 l 0 434 l 0 521 l 87 521 l 87 608 l 174 608 l 174 521 l 347 521 l 347 434 l 174 434 l 174 347 l 347 347 l 347 260 l 174 260 l 174 174 l 87 174 m 174 608 l 174 694 l 260 694 l 260 608 l 174 608 m 434 608 l 434 694 l 521 694 l 521 608 l 434 608 m 260 694 l 260 781 l 434 781 l 434 694 l 260 694 z "},"™":{"ha":884,"x_min":0,"x_max":781,"o":"m 521 521 l 521 608 l 608 608 l 608 521 l 521 521 m 87 434 l 87 694 l 0 694 l 0 781 l 260 781 l 260 694 l 174 694 l 174 434 l 87 434 m 347 434 l 347 781 l 434 781 l 434 694 l 521 694 l 521 608 l 434 608 l 434 434 l 347 434 m 694 434 l 694 608 l 608 608 l 608 694 l 694 694 l 694 781 l 781 781 l 781 434 l 694 434 z "}}}
